# AST/ASF file generated using VICON BodyLanguage
# -----------------------------------------------
:version 1.10
:name VICON
:units
  mass 1.0
  length 0.45
  angle deg
:documentation
   .ast/.asf automatically generated from VICON data using
   VICON BodyBuilder and BodyLanguage model FoxedUp or BRILLIANT.MOD
:root
   order TX TY TZ RX RY RZ
   axis XYZ
   position 0 0 0  
   orientation 0 0 0 
:bonedata
  begin
     id 1 
     name lhipjoint
     direction 0.576517 -0.752066 0.319413 
     length 2.45433 
     axis 0 0 0  XYZ
  end
  begin
     id 2 
     name lfemur
     direction 0.34202 -0.939693 0  
     length 7.54459  
     axis 0 0 20  XYZ
    dof rx ry rz
    limits (-160.0 20.0)
           (-70.0 70.0)
           (-60.0 70.0)
  end
  begin
     id 3 
     name ltibia
     direction 0.34202 -0.939693 0   
     length 7.73986   
     axis 0 0 20   XYZ
    dof rx
    limits (-10.0 170.0)
  end
  begin
     id 4 
     name lfoot
     direction 0.090693 -0.249177 0.964202   
     length 2.28437   
     axis -90 7.62852e-016 20   XYZ
    dof rx rz
    limits (-45.0 90.0)
           (-70.0 20.0)
  end
  begin
     id 5 
     name ltoes
     direction 1.5356e-011 -4.21928e-011 1   
     length 1.14243   
     axis -90 7.62852e-016 20   XYZ
    dof rx
    limits (-90.0 20.0)
  end
  begin
     id 6 
     name rhipjoint
     direction -0.573937 -0.753736 0.320122   
     length 2.44889  
     axis 0 0 0  XYZ 
  end
  begin
     id 7 
     name rfemur
     direction -0.34202 -0.939693 0   
     length 7.50166   
     axis 0 0 -20   XYZ
    dof rx ry rz
    limits (-160.0 20.0)
           (-70.0 70.0)
           (-70.0 60.0)
  end
  begin
     id 8 
     name rtibia
     direction -0.34202 -0.939693 0   
     length 7.54266   
     axis 0 0 -20   XYZ
    dof rx
    limits (-10.0 170.0)
 end
 begin
     id 9 
     name rfoot
     direction -0.114017 -0.31326 0.942798   
     length 2.34212  
     axis -90 -7.62852e-016 -20   XYZ
    dof rx rz
    limits (-45.0 90.0)
           (-20.0 70.0)
  end
  begin
     id 10 
     name rtoes
     direction -1.53557e-011 -4.21867e-011 1   
     length 1.16246   
     axis -90 -7.62852e-016 -20   XYZ
    dof rx
    limits (-90.0 20.0)
  end
  begin
     id 11 
     name lowerback
     direction -0.0228371 0.999155 -0.034167   
     length 2.0537   
     axis 0 0 0   XYZ
    dof rx ry rz
    limits (-20.0 45.0)
           (-30.0 30.0)
           (-30.0 30.0)
  end
  begin
     id 12 
     name upperback
     direction 0.0198981 0.999794 0.00389455   
     length 2.05302   
     axis 0 0 0   XYZ
    dof rx ry rz
    limits (-20.0 45.0)
           (-30.0 30.0)
           (-30.0 30.0)
  end
  begin
     id 13 
     name thorax
     direction 0.0304566 0.99935 0.0192987   
     length 2.05315   
     axis 0 0 0   XYZ
    dof rx ry rz
    limits (-20.0 45.0)
           (-30.0 30.0)
           (-30.0 30.0)
  end
  begin
     id 14 
     name lowerneck
     direction -0.0196762 0.99417 0.106017   
     length 1.82056   
     axis 0 0 0   XYZ
    dof rx ry rz
    limits (-20.0 45.0)
           (-30.0 30.0)
           (-30.0 30.0)
  end
  begin
     id 15 
     name upperneck
     direction 0.00517787 0.9802 -0.197944   
     length 1.83835   
     axis 0 0 0   XYZ
    dof rx ry rz
    limits (-20.0 45.0)
           (-30.0 30.0)
           (-30.0 30.0)
  end
  begin
     id 16
     name head
     direction 0.00211419 0.996945 -0.078081  
     length 1.85629  
     axis 0 0 0   XYZ
    dof rx ry rz
    limits (-20.0 45.0)
           (-30.0 30.0)
           (-30.0 30.0)
  end
  begin
     id 17 
     name lclavicle
     direction 0.930001 0.365811 -0.0357824  
     length 3.81961  
     axis 0 0 0   XYZ
    dof ry rz
    limits (-20.0 10.0)
           (0.0 20.0)
  end
  begin
     id 18 
     name lhumerus
     direction 1 -4.48968e-011 -3.06644e-027   
     length 5.14507   
     axis 180 -30 -90   XYZ
    dof rx ry rz
    limits (-60.0 90.0)
           (-90.0 90.0)
           (-90.0 90.0)
  end
  begin
     id 19
     name lradius
     direction 1 -4.48965e-011 9.06925e-028   
     length 3.50646   
     axis 180 -30 -90   XYZ
    dof rx
    limits (-10.0 170.0)
  end
  begin
     id 20
     name lwrist
     direction 1 -4.48957e-011 1.03922e-027   
     length 1.75323   
     axis -2.56395e-016 90 90   XYZ
    dof ry
    limits (-180.0 0.0)
 end
  begin
     id 21 
     name lhand
     direction 1 -4.48967e-011 2.08017e-027   
     length 0.629969   
     axis -1.32723e-015 90 90   XYZ
    dof rx rz
    limits (-90.0 90.0)
           (-45.0 45.0)
  end
  begin
     id 22 
     name lfingers
     direction 1 -4.49089e-011 4.20095e-027   
     length 0.507897   
     axis -2.6545e-015 90 90   XYZ
    dof rx
    limits (0.0 90.0)
  end
  begin
     id 23
     name lthumb
     direction 0.707107 -6.35001e-011 0.707107   
     length 0.729241   
     axis -90 45 5.05613e-014   XYZ
    dof rx rz
    limits (-45.0 45.0)
           (-45.0 45.0)
  end
  begin
     id 24 
     name rclavicle
     direction -0.881882 0.464123 -0.0829113   
     length 3.47515  
     axis 0 0 0   XYZ 
    dof ry rz
    limits (-10.0 20.0)
           (-20.0 0.0)
  end
  begin
     id 25 
     name rhumerus
     direction -1 -4.48961e-011 -1.55672e-027  
     length 5.232   
     axis 180 30 90   XYZ
    dof rx ry rz
    limits (-90.0 60.0)
           (-90.0 90.0)
           (-90.0 90.0)
  end
  begin
     id 26 
     name rradius
     direction -1 -4.48963e-011 6.18178e-029   
     length 3.65641   
     axis 180 30 90   XYZ
    dof rx
    limits (-10.0 170.0)
  end
  begin
     id 27 
     name rwrist
     direction -1 -4.48982e-011 1.04136e-027   
     length 1.8282   
     axis -2.56395e-016 -90 -90   XYZ
    dof ry
    limits (-180.0 0.0)
  end
  begin
     id 28
     name rhand
     direction -1 -4.48929e-011 2.07378e-027   
     length 0.656807   
     axis -1.32723e-015 -90 -90   XYZ
    dof rx rz
    limits (-90.0 90.0)
           (-45.0 45.0)
  end
  begin
     id 29
     name rfingers
     direction -1 -4.489e-011 4.13816e-027   
     length 0.529535   
     axis -2.6545e-015 -90 -90   XYZ
    dof rx
    limits (0.0 90.0)
  end
  begin
     id 30
     name rthumb
     direction -0.707107 -6.34843e-011 0.707107   
     length 0.760309   
     axis -90 -45 -5.05613e-014   XYZ
    dof rx rz
    limits (-45.0 45.0)
           (-45.0 45.0)
  end
:hierarchy
  begin
    root lhipjoint rhipjoint lowerback
    lhipjoint lfemur
    lfemur ltibia
    ltibia lfoot
    lfoot ltoes
    rhipjoint rfemur
    rfemur rtibia
    rtibia rfoot
    rfoot rtoes
    lowerback upperback
    upperback thorax
    thorax lowerneck lclavicle rclavicle
    lowerneck upperneck
    upperneck head
    lclavicle lhumerus
    lhumerus lradius
    lradius lwrist
    lwrist lhand lthumb
    lhand lfingers
    rclavicle rhumerus
    rhumerus rradius
    rradius rwrist
    rwrist rhand rthumb
    rhand rfingers
  end

#!OML:ASF H:\ManfredETheater\Project 1\Capture day 1\Session 1\subject.ASF
:FULLY-SPECIFIED
:DEGREES
16
root 20.9887 15.05 37.7815 -155.562 -36.7409 -178.344
lowerback 25.1377 -1.41014 2.15806
upperback 0.52461 -1.5481 -0.770494
thorax -13.6209 -0.966671 -1.54293
lowerneck -16.4325 -4.50063 -4.36659
upperneck 1.25268 -5.50726 1.64267
head 3.51637 -2.81174 0.869137
rclavicle 2.62396e-014 6.87795e-014
rhumerus -34.8256 5.29699 -91.6177
rradius 66.7553
rwrist -0.11075
rhand -27.4392 -5.67207
rfingers 7.12502
rthumb -0.844286 -35.6501
lclavicle 2.62396e-014 6.87795e-014
lhumerus -20.3932 -7.15675 88.8395
lradius 60.204
lwrist -1.35513
lhand -33.6062 -14.4749
lfingers 7.12502
lthumb -6.79942 15.3959
rfemur -30.7668 -13.7997 27.6973
rtibia 81.579
rfoot -4.62693 -8.85223
rtoes -32.7975
lfemur -70.3605 8.35234 -31.1737
ltibia 72.3178
lfoot -29.2211 -7.63646
ltoes 28.0571
17
root 20.9111 15.0137 37.4748 -155.389 -37.7272 -179.079
lowerback 25.8365 -1.4752 1.79852
upperback 0.755276 -1.77061 -0.906639
thorax -13.741 -1.05756 -1.39922
lowerneck -16.3545 -4.66405 -4.57301
upperneck 1.379 -5.68516 1.72912
head 3.56373 -2.89513 0.919792
rclavicle 1.74931e-014 -5.64548e-014
rhumerus -34.6948 4.47529 -90.8684
rradius 65.5624
rwrist -0.203108
rhand -27.3445 -6.19809
rfingers 7.12502
rthumb -0.752816 -36.1765
lclavicle 1.74931e-014 -5.64548e-014
lhumerus -19.583 -7.30853 89.2117
lradius 60.6653
lwrist -1.11414
lhand -33.7315 -14.4235
lfingers 7.12502
lthumb -6.92035 15.4434
rfemur -34.3179 -14.8011 27.3689
rtibia 85.0607
rfoot -6.70881 -10.9233
rtoes -31.5863
lfemur -69.2295 8.10959 -30.9235
ltibia 73.2118
lfoot -30.3449 -8.36696
ltoes 27.6462
18
root 20.8349 14.9683 37.1683 -155.284 -38.681 -179.731
lowerback 26.5701 -1.53783 1.48299
upperback 1.01057 -1.98142 -1.01798
thorax -13.8462 -1.14584 -1.25329
lowerneck -16.2782 -4.79997 -4.76314
upperneck 1.46095 -5.83136 1.79344
head 3.59351 -2.96479 0.96323
rclavicle 8.34896e-015 1.98785e-014
rhumerus -34.5302 3.71155 -90.1333
rradius 64.3487
rwrist -0.394859
rhand -27.1321 -6.77653
rfingers 7.12502
rthumb -0.547634 -36.7556
lclavicle 8.34896e-015 1.98785e-014
lhumerus -18.8121 -7.42071 89.565
lradius 61.2329
lwrist -0.879796
lhand -33.8394 -14.3345
lfingers 7.12502
lthumb -7.02454 15.529
rfemur -37.9183 -15.6457 27.0698
rtibia 88.2207
rfoot -8.68525 -12.8268
rtoes -30.0578
lfemur -68.1385 7.85704 -30.5183
ltibia 74.2035
lfoot -31.3905 -9.0318
ltoes 27.1885
19
root 20.7609 14.914 36.8611 -155.238 -39.5988 -180.318
lowerback 27.3397 -1.5936 1.18507
upperback 1.2903 -2.1834 -1.11167
thorax -13.9363 -1.23163 -1.09703
lowerneck -16.1856 -4.90936 -4.94217
upperneck 1.4922 -5.94744 1.85331
head 3.60073 -3.02047 1.00666
rclavicle -6.16232e-014 -2.8625e-014
rhumerus -34.3333 2.99537 -89.4196
rradius 63.1361
rwrist -0.687452
rhand -26.5139 -7.68618
rfingers 7.12502
rthumb 0.0494004 -37.6659
lclavicle -6.16232e-014 -2.8625e-014
lhumerus -18.0837 -7.51272 89.8851
lradius 61.9057
lwrist -0.658987
lhand -33.9138 -14.248
lfingers 7.12502
lthumb -7.09639 15.6131
rfemur -41.5526 -16.3223 26.7679
rtibia 91.0277
rfoot -10.4566 -14.4504
rtoes -28.3719
lfemur -67.0904 7.60398 -29.9876
ltibia 75.2923
lfoot -32.3406 -9.64613
ltoes 26.6867
